<svg xmlns="http://www.w3.org/2000/svg" viewBox="0 0 64 64">
  <!-- Background speech bubble (smaller, dimmed) -->
  <path fill="currentColor" opacity=".4" d="M48 16H30c-1.1 0-2 .9-2 2v4h18c1.1 0 2 .9 2 2v16h2c1.1 0 2-.9 2-2v-1l4 5v-24c0-1.1-.9-2-2-2Z"/>
  <!-- Foreground speech bubble outline -->
  <path fill="currentColor" d="M40 22H14c-1.1 0-2 .9-2 2v18c0 1.1.9 2 2 2h2v6l8-6h16c1.1 0 2-.9 2-2V24c0-1.1-.9-2-2-2Zm-2 18H22.67L20 42v-2h-4V26h22v14Z"/>
  <!-- Three dots representing comment content -->
  <g fill="var(--icon-color-accent, #ff8700)">
    <circle cx="20" cy="33" r="2"/>
    <circle cx="27" cy="33" r="2"/>
    <circle cx="34" cy="33" r="2"/>
  </g>
</svg>
